<?xml version="1.0" encoding="UTF-8" standalone="no"?>
<svg
   xmlns:dc="http://purl.org/dc/elements/1.1/"
   xmlns:cc="http://creativecommons.org/ns#"
   xmlns:rdf="http://www.w3.org/1999/02/22-rdf-syntax-ns#"
   xmlns:svg="http://www.w3.org/2000/svg"
   xmlns="http://www.w3.org/2000/svg"
   xmlns:xlink="http://www.w3.org/1999/xlink"
   xmlns:sodipodi="http://sodipodi.sourceforge.net/DTD/sodipodi-0.dtd"
   xmlns:inkscape="http://www.inkscape.org/namespaces/inkscape"
   version="1.1"
   x="0px"
   y="0px"
   width="1800"
   height="500"
   viewBox="0 0 1800 500"
   enable-background="new 0 0 1800 1200"
   xml:space="preserve"
   id="svg26"
   sodipodi:docname="Live-Background-1.svg"
   inkscape:version="1.0.1 (3bc2e813f5, 2020-09-07)"><metadata
   id="metadata32"><rdf:RDF><cc:Work
       rdf:about=""><dc:format>image/svg+xml</dc:format><dc:type
         rdf:resource="http://purl.org/dc/dcmitype/StillImage" /><dc:title /></cc:Work></rdf:RDF></metadata><defs
   id="defs30"><linearGradient
     inkscape:collect="always"
     xlink:href="#SVGID_2_"
     id="linearGradient919"
     x1="-422.20401"
     y1="144.0211"
     x2="2261.032"
     y2="144.0211"
     gradientUnits="userSpaceOnUse" /><linearGradient
     inkscape:collect="always"
     xlink:href="#SVGID_2_"
     id="linearGradient845"
     gradientUnits="userSpaceOnUse"
     x1="-420.54111"
     y1="112.5312"
     x2="2257.8955"
     y2="112.5312" /><linearGradient
     inkscape:collect="always"
     xlink:href="#SVGID_2_"
     id="linearGradient847"
     gradientUnits="userSpaceOnUse"
     x1="-422.20401"
     y1="144.0211"
     x2="2261.032"
     y2="144.0211" /></defs><sodipodi:namedview
   pagecolor="#ffffff"
   bordercolor="#666666"
   borderopacity="1"
   objecttolerance="10"
   gridtolerance="10"
   guidetolerance="10"
   inkscape:pageopacity="0"
   inkscape:pageshadow="2"
   inkscape:window-width="1920"
   inkscape:window-height="1001"
   id="namedview28"
   showgrid="false"
   inkscape:zoom="0.2445411"
   inkscape:cx="189.66747"
   inkscape:cy="312.18839"
   inkscape:window-x="3831"
   inkscape:window-y="424"
   inkscape:window-maximized="1"
   inkscape:current-layer="svg26"
   inkscape:document-rotation="0" />
	

<g
   id="g864"
   transform="matrix(1.1471475,0,0,0.97628264,-176.89133,-682.41334)"><g
     id="Layer_3"
     transform="matrix(0.72377345,0,0,-0.72431602,262.34937,1186.8576)"
     style="fill:url(#linearGradient919);fill-opacity:1;stroke-width:0.999938;stroke-miterlimit:4;stroke-dasharray:none">
	<linearGradient
   id="SVGID_1_"
   gradientUnits="userSpaceOnUse"
   x1="-422.20361"
   y1="144.0213"
   x2="2261.033"
   y2="144.0213">
		<stop
   offset="0"
   style="stop-color:#00AEEF;fill-opacity:1.0;fill:url(#linearGradient919)"
   id="stop2" />
		<stop
   offset="1"
   style="stop-color:#2E3192;fill-opacity:1.0;fill:url(#linearGradient919)"
   id="stop4" />
	</linearGradient>
	<path
   opacity="0.5"
   fill="url(#SVGID_1_)"
   d="m -422.204,206.913 c 0,0 173.292,111.168 438.823,-0.001 154.115,-64.523 276.128,-60.886 421.022,12.909 109.477,55.758 243.895,91.25 368.21,91.796 104.42,0.459 205.692,-20.687 295.24,-72.942 310.249,-181.045 486.337,0 486.337,0 0,0 310.249,250.923 673.604,-19.057 V -56.715 H -421.195 Z"
   id="path7"
   style="fill:url(#linearGradient847);fill-opacity:1;stroke-width:0.999938;stroke-miterlimit:4;stroke-dasharray:none">
		<animateTransform
   attributeName="transform"
   attributeType="XML"
   type="translate"
   dur="25"
   values="150,0;-150,0;150,0;"
   repeatCount="indefinite"
   style="fill-opacity:1.0;fill:url(#linearGradient919)" />
	</path>
</g><g
     id="Layer_2"
     transform="matrix(0.72377345,0,0,-0.72431602,261.14791,1188.8234)"
     style="stroke-width:0.999938;stroke-miterlimit:4;stroke-dasharray:none">
	<linearGradient
   id="SVGID_2_"
   gradientUnits="userSpaceOnUse"
   x1="-420.54111"
   y1="112.5312"
   x2="2257.8955"
   y2="112.5312">
		<stop
   offset="0"
   style="stop-color:#262262"
   id="stop10" />
		<stop
   offset="1"
   style="stop-color:#00AEEF"
   id="stop12" />
	</linearGradient>
	<path
   opacity="0.5"
   fill="url(#SVGID_2_)"
   d="m -420.541,164.707 c 0,0 172.982,92.226 438.049,-0.004 101.218,-35.218 208.451,-48.944 314.181,-24.364 73.381,17.059 141.142,50.094 213.293,71.037 179,51.959 384.443,62.422 555.047,-20.318 309.694,-150.197 485.467,0 485.467,0 0,0 309.694,208.168 672.399,-15.81 V -54.001 h -2677.43 z"
   id="path15"
   style="fill:url(#linearGradient845);stroke-width:0.999938;stroke-miterlimit:4;stroke-dasharray:none">
		<animateTransform
   attributeName="transform"
   attributeType="XML"
   type="translate"
   dur="20"
   values="150,0;-150,0;150,0;"
   repeatCount="indefinite" />
	</path>
</g><g
     id="Layer_1"
     transform="matrix(0.72377345,0,0,-0.72431602,260.63403,1176.5405)"
     style="stroke-width:0.999938;stroke-miterlimit:4;stroke-dasharray:none">
	<linearGradient
   id="SVGID_3_"
   gradientUnits="userSpaceOnUse"
   x1="-427.02151"
   y1="95.572998"
   x2="2261.0151"
   y2="95.572998">
		<stop
   offset="0"
   style="stop-color:#00AEEF"
   id="stop18" />
		<stop
   offset="1"
   style="stop-color:#2B3990"
   id="stop20" />
	</linearGradient>
	<path
   opacity="0.5"
   fill="url(#SVGID_3_)"
   d="m -427.022,147.749 c 0,0 173.602,92.226 439.609,-0.001 196.78,-68.225 341.498,-5.243 528.774,46.796 181.043,50.307 385.075,62.947 557.638,-20.444 310.804,-150.197 487.207,0 487.207,0 0,0 310.804,208.168 674.809,-15.81 V -70.96 H -426.011 Z"
   id="path23"
   style="fill:url(#SVGID_3_);stroke-width:0.999938;stroke-miterlimit:4;stroke-dasharray:none">
		<animateTransform
   attributeName="transform"
   attributeType="XML"
   type="translate"
   dur="15"
   values="150,0;-150,0;150,0;"
   repeatCount="indefinite" />
	</path>
</g></g>
</svg>
